<?xml version="1.0" encoding="UTF-8"?>
<svg width="151px" height="42px" viewBox="0 0 151 42" version="1.1" xmlns="http://www.w3.org/2000/svg" xmlns:xlink="http://www.w3.org/1999/xlink">
    <!-- Generator: Sketch 53.2 (72643) - https://sketchapp.com -->
    <title>logo@1x</title>
    <desc>Created with Sketch.</desc>
    <defs>
        <linearGradient x1="50%" y1="0%" x2="50%" y2="100%" id="linearGradient-1">
            <stop stop-color="#FD7552" offset="0%"></stop>
            <stop stop-color="#F92655" offset="100%"></stop>
        </linearGradient>
        <path d="M8.03435078,19.8151662 L12.9530893,2.31983562 C13.0131967,2.10104 13.1484364,1.92202809 13.3588125,1.78279452 C13.5691886,1.64356095 13.8046058,1.57394521 14.0650714,1.57394521 C14.3055012,1.57394521 14.5359096,1.63858839 14.7563036,1.76787671 C14.9766975,1.89716503 15.1169461,2.0910946 15.1770536,2.34967123 L20.1244469,19.8190328 L25.3652143,1.69328767 C25.505465,1.1761344 25.8861398,0.917561644 26.50725,0.917561644 C26.9280021,0.917561644 27.2185171,1.08165589 27.3788036,1.40984932 C27.5390901,1.73804274 27.5591256,2.13087442 27.4389107,2.58835616 L21.3079821,23.2346027 C21.2078031,23.5528509 21.0525278,23.796506 20.8421518,23.9655753 C20.6317757,24.1346447 20.3863407,24.2191781 20.1058393,24.2191781 C19.8253379,24.2191781 19.5799028,24.1296721 19.3695268,23.9506575 C19.1591507,23.7716429 19.0138933,23.5429055 18.93375,23.2644384 L14.0658266,5.62815194 L9.22644643,23.2346027 C9.12626736,23.5329604 8.97099212,23.7716429 8.76061607,23.9506575 C8.55024002,24.1296721 8.30480497,24.2191781 8.02430357,24.2191781 C7.74380217,24.2191781 7.49836712,24.1296721 7.28799107,23.9506575 C7.07761502,23.7716429 6.93235754,23.5429055 6.85221429,23.2644384 L0.691232143,2.58835616 C0.550981442,2.11098391 0.576025834,1.71317967 0.766366071,1.39493151 C0.956706309,1.07668334 1.2622479,0.917561644 1.683,0.917561644 C1.92342977,0.917561644 2.14882931,0.982204833 2.35920536,1.11149315 C2.56958141,1.24078147 2.72485664,1.47449146 2.82503571,1.81263014 L8.03435078,19.8151662 Z M28.9592618,14.9104658 L39.9655372,14.9104658 C39.8881719,14.1217481 39.6897198,13.395752 39.3701786,12.7324658 C38.9293907,11.8175023 38.3032808,11.1014546 37.4918304,10.5843014 C36.6803799,10.0671481 35.7136663,9.80857534 34.5916607,9.80857534 C33.4496193,9.80857534 32.4478436,10.0770932 31.5863036,10.614137 C30.7247635,11.1511808 30.0585827,11.8920912 29.5877411,12.8368904 C29.2731521,13.4681503 29.0636597,14.1593389 28.9592618,14.9104658 L28.9592618,14.9104658 Z M28.9165963,16.8199452 C29.0046726,17.7322985 29.2584398,18.5577453 29.6779018,19.2963014 C30.2088509,20.2311554 30.9351382,20.9670932 31.8567857,21.504137 C32.7784332,22.0411808 33.8403154,22.3096986 35.0424643,22.3096986 C35.7637536,22.3096986 36.490041,22.1853848 37.2213482,21.9367534 C37.9526554,21.688122 38.5386942,21.3748512 38.9794821,20.9969315 C39.1998761,20.8179169 39.45032,20.7234384 39.7308214,20.7134932 C40.0113228,20.7035479 40.251749,20.7781362 40.4521071,20.9372603 C40.7125727,21.1759464 40.8478124,21.4345192 40.8578304,21.7129863 C40.8678483,21.9914534 40.7526441,22.230136 40.5122143,22.4290411 C39.8510324,22.9859754 39.0095408,23.4484228 37.9877143,23.8163973 C36.9658877,24.1843717 35.9841476,24.3683562 35.0424643,24.3683562 C33.4195633,24.3683562 31.9820152,24.0153049 30.7297768,23.3091918 C29.4775384,22.6030787 28.4957982,21.6234857 27.7845268,20.3703836 C27.0732554,19.1172814 26.717625,17.6851861 26.717625,16.0740548 C26.717625,14.4430329 27.0532199,13.0059651 27.7244196,11.7628082 C28.3956194,10.5196513 29.3222619,9.54005837 30.504375,8.824 C31.6864881,8.10794163 33.048903,7.74991781 34.5916607,7.74991781 C36.1143826,7.74991781 37.4417354,8.09302397 38.5737589,8.77924658 C39.7057824,9.46546918 40.5823362,10.4152268 41.2034464,11.6285479 C41.8245567,12.8418691 42.1351071,14.2242388 42.1351071,15.7756986 C42.1351071,16.0939468 42.0349296,16.347547 41.8345714,16.5365068 C41.6342133,16.7254667 41.3737516,16.8199452 41.0531786,16.8199452 L28.9165963,16.8199452 L28.9165963,16.8199452 Z M47.5146964,24.2191781 C47.1941234,24.2191781 46.9186351,24.1048094 46.6882232,23.8760685 C46.4578113,23.6473276 46.3426071,23.3738372 46.3426071,23.055589 L46.3426071,2.08115068 C46.3426071,1.76290252 46.4578113,1.4894121 46.6882232,1.26067123 C46.9186351,1.03193036 47.1941234,0.917561644 47.5146964,0.917561644 C47.8352695,0.917561644 48.1107578,1.03193036 48.3411696,1.26067123 C48.5715815,1.4894121 48.6867857,1.76290252 48.6867857,2.08115068 L48.6867857,12.2252603 L59.6563393,1.33526027 C59.8166258,1.17613619 59.9668922,1.06674002 60.1071429,1.00706849 C60.2473936,0.947396962 60.4076777,0.917561644 60.588,0.917561644 C60.9486447,0.917561644 61.2191241,1.02695781 61.3994464,1.24575342 C61.5797688,1.46454904 61.6649197,1.72809435 61.6549018,2.03639726 C61.6448839,2.34470017 61.5196619,2.6380808 61.2792321,2.91654795 L53.0445536,11.0915068 L61.3693929,22.3693699 C61.5497152,22.6279465 61.6248484,22.9014369 61.5947946,23.1898493 C61.5647409,23.4782617 61.4495367,23.7219168 61.2491786,23.9208219 C61.0488204,24.119727 60.8083943,24.2191781 60.5278929,24.2191781 C60.0871049,24.2191781 59.756519,24.0501113 59.536125,23.7119726 L51.3615536,12.7324658 L48.6867857,15.4176712 L48.6867857,23.055589 C48.6867857,23.3738372 48.5715815,23.6473276 48.3411696,23.8760685 C48.1107578,24.1048094 47.8352695,24.2191781 47.5146964,24.2191781 Z M71.1668571,24.3683562 C69.6240994,24.3683562 68.241649,24.0053598 67.0194643,23.2793562 C65.7972796,22.5533525 64.8305661,21.5638145 64.1192946,20.3107123 C63.4080232,19.0576102 63.0523929,17.6454051 63.0523929,16.0740548 C63.0523929,14.482814 63.418041,13.0606638 64.1493482,11.8075616 C64.8806554,10.5544595 65.8774223,9.56492144 67.1396786,8.83891781 C68.4019349,8.11291418 69.8244564,7.74991781 71.4072857,7.74991781 C72.9901151,7.74991781 74.4076277,8.11291418 75.6598661,8.83891781 C76.9121045,9.56492144 77.9038624,10.5544595 78.6351696,11.8075616 C79.3664769,13.0606638 79.7421428,14.482814 79.7621786,16.0740548 L78.8305179,16.7901096 C78.8305179,18.2222263 78.494923,19.5101176 77.8237232,20.6538219 C77.1525234,21.7975263 76.2409075,22.7025309 75.0888482,23.368863 C73.9367889,24.0351951 72.6294716,24.3683562 71.1668571,24.3683562 Z M71.4072857,22.279863 C72.569363,22.279863 73.6062008,22.0113452 74.5178304,21.4743014 C75.4294599,20.9372576 76.1507384,20.1963472 76.6816875,19.2515479 C77.2126366,18.3067487 77.4781071,17.2475949 77.4781071,16.0740548 C77.4781071,14.8806242 77.2126366,13.8164978 76.6816875,12.8816438 C76.1507384,11.9467898 75.4294599,11.2058794 74.5178304,10.6588904 C73.6062008,10.1119014 72.569363,9.83841096 71.4072857,9.83841096 C70.2652443,9.83841096 69.2334153,10.1119014 68.3117679,10.6588904 C67.3901204,11.2058794 66.6588241,11.9467898 66.1178571,12.8816438 C65.5768902,13.8164978 65.3064107,14.8806242 65.3064107,16.0740548 C65.3064107,17.2475949 65.5768902,18.3067487 66.1178571,19.2515479 C66.6588241,20.1963472 67.3901204,20.9372576 68.3117679,21.4743014 C69.2334153,22.0113452 70.2652443,22.279863 71.4072857,22.279863 Z M78.5900893,24.2191781 C78.2494804,24.2191781 77.9689832,24.1147545 77.7485893,23.9059041 C77.5281953,23.6970538 77.418,23.4235633 77.418,23.0854247 L77.418,17.9835342 L77.9890179,15.6265205 L79.7621786,16.0740548 L79.7621786,23.0854247 C79.7621786,23.4235633 79.6519832,23.6970538 79.4315893,23.9059041 C79.2111953,24.1147545 78.9306981,24.2191781 78.5900893,24.2191781 Z M98.3653393,24.2191781 C98.0247304,24.2191781 97.7442332,24.1097819 97.5238393,23.8909863 C97.3034453,23.6721907 97.19325,23.4036728 97.19325,23.0854247 L97.19325,15.3281644 C97.19325,14.0949527 96.9578327,13.0805519 96.4869911,12.2849315 C96.0161494,11.4893111 95.375013,10.8926047 94.5635625,10.4947945 C93.752112,10.0969843 92.8354873,9.89808219 91.8136607,9.89808219 C90.8319058,9.89808219 89.9453343,10.0870392 89.1539196,10.4649589 C88.362505,10.8428786 87.7363952,11.3600241 87.2755714,12.016411 C86.8147477,12.6727978 86.5843393,13.4186808 86.5843393,14.2540822 L84.9313929,14.2540822 C84.9714645,13.00098 85.3120682,11.8821556 85.9532143,10.8975753 C86.5943603,9.91299508 87.4458697,9.13727681 88.5077679,8.57039726 C89.569666,8.00351771 90.7517613,7.72008219 92.0540893,7.72008219 C93.4766321,7.72008219 94.7488872,8.01346282 95.8708929,8.60023288 C96.9928985,9.18700293 97.87947,10.0472546 98.5306339,11.1810137 C99.1817979,12.3147728 99.507375,13.6971425 99.507375,15.3281644 L99.507375,23.0854247 C99.507375,23.4036728 99.3971797,23.6721907 99.1767857,23.8909863 C98.9563918,24.1097819 98.6859123,24.2191781 98.3653393,24.2191781 Z M85.4423036,24.2191781 C85.0816589,24.2191781 84.7961528,24.1147545 84.5857768,23.9059041 C84.3754007,23.6970538 84.2702143,23.4235633 84.2702143,23.0854247 L84.2702143,9.06268493 C84.2702143,8.70465574 84.3754007,8.42122022 84.5857768,8.21236986 C84.7961528,8.0035195 85.0816589,7.89909589 85.4423036,7.89909589 C85.7829124,7.89909589 86.0584007,8.0035195 86.2687768,8.21236986 C86.4791528,8.42122022 86.5843393,8.70465574 86.5843393,9.06268493 L86.5843393,23.0854247 C86.5843393,23.4235633 86.4791528,23.6970538 86.2687768,23.9059041 C86.0584007,24.1147545 85.7829124,24.2191781 85.4423036,24.2191781 Z" id="path-2"></path>
        <path d="M3.29273786,6.29333333 C2.89848347,6.29333333 2.52978812,6.21985259 2.18664078,6.07288889 C1.84349343,5.92592519 1.54172298,5.7208902 1.28132039,5.45777778 C1.02091779,5.19466535 0.817709468,4.89126098 0.67168932,4.54755556 C0.525669173,4.20385013 0.452660194,3.83526123 0.452660194,3.44177778 C0.452660194,3.05303509 0.524452357,2.68681653 0.668038835,2.34311111 C0.811625313,1.99940569 1.01361682,1.69718649 1.27401942,1.43644444 C1.53442201,1.1757024 1.83619246,0.970667413 2.17933981,0.821333333 C2.52248715,0.671999253 2.89361613,0.597333333 3.29273786,0.597333333 C3.64318622,0.597333333 3.96199209,0.647110613 4.24916505,0.746666667 C4.53633801,0.84622272 4.81377212,1.00503595 5.08147573,1.22311111 C5.12528177,1.25629646 5.15083491,1.29540718 5.15813592,1.34044444 C5.16543693,1.38548171 5.15935285,1.42814795 5.1398835,1.46844444 C5.12041414,1.50874094 5.09121055,1.53837028 5.05227184,1.55733333 C5.04253717,1.59525945 5.01820084,1.62370361 4.97926214,1.64266667 C4.94032343,1.66162972 4.89530123,1.66874076 4.84419417,1.664 C4.79308712,1.65925924 4.74319765,1.63792612 4.69452427,1.6 C4.50469808,1.43881401 4.29783931,1.3191115 4.07394175,1.24088889 C3.85004419,1.16266628 3.5896455,1.12355556 3.29273786,1.12355556 C2.97636088,1.12355556 2.68067451,1.18518457 2.4056699,1.30844444 C2.13066529,1.43170432 1.88851885,1.59999893 1.6792233,1.81333333 C1.46992776,2.02666773 1.30565755,2.27318379 1.18640777,2.55288889 C1.06715798,2.83259399 1.00753398,3.12888732 1.00753398,3.44177778 C1.00753398,3.76414976 1.06715798,4.06518379 1.18640777,4.34488889 C1.30565755,4.62459399 1.46992776,4.87111004 1.6792233,5.08444444 C1.88851885,5.29777884 2.13066529,5.46488828 2.4056699,5.58577778 C2.68067451,5.70666727 2.97636088,5.76711111 3.29273786,5.76711111 C3.56044147,5.76711111 3.81353926,5.72444487 4.05203883,5.63911111 C4.29053841,5.55377735 4.51686624,5.43051932 4.73102913,5.26933333 C4.78943719,5.22192569 4.85149482,5.20296292 4.91720388,5.21244444 C4.98291295,5.22192597 5.04010332,5.25037013 5.0887767,5.29777778 C5.13745008,5.34518542 5.16178641,5.40681444 5.16178641,5.48266667 C5.16178641,5.52059278 5.15570233,5.55496281 5.14353398,5.58577778 C5.13136563,5.61659275 5.11067976,5.64859243 5.08147573,5.68177778 C4.83324148,5.90459371 4.55580736,6.06222176 4.24916505,6.15466667 C3.94252274,6.24711157 3.62371687,6.29333333 3.29273786,6.29333333 Z M18.0297472,6.29333333 C17.6062888,6.29333333 17.2169076,6.22222293 16.8615919,6.08 C16.5062762,5.93777707 16.1984217,5.73866795 15.9380191,5.48266667 C15.6776165,5.22666539 15.475625,4.92563136 15.3320385,4.57955556 C15.188452,4.23347975 15.1166598,3.85422428 15.1166598,3.44177778 C15.1166598,3.03407204 15.188452,2.65718692 15.3320385,2.31111111 C15.475625,1.96503531 15.6776165,1.66400128 15.9380191,1.408 C16.1984217,1.15199872 16.5062762,0.9528896 16.8615919,0.810666667 C17.2169076,0.668443733 17.6062888,0.597333333 18.0297472,0.597333333 C18.4483383,0.597333333 18.8352859,0.668443733 19.1906016,0.810666667 C19.5459173,0.9528896 19.8549886,1.15199872 20.1178249,1.408 C20.3806612,1.66400128 20.5838695,1.96503531 20.727456,2.31111111 C20.8710424,2.65718692 20.9428346,3.03407204 20.9428346,3.44177778 C20.9428346,3.85422428 20.8710424,4.23347975 20.727456,4.57955556 C20.5838695,4.92563136 20.3806612,5.22666539 20.1178249,5.48266667 C19.8549886,5.73866795 19.5459173,5.93777707 19.1906016,6.08 C18.8352859,6.22222293 18.4483383,6.29333333 18.0297472,6.29333333 Z M18.0297472,5.76711111 C18.3655936,5.76711111 18.6770985,5.70903762 18.9642715,5.59288889 C19.2514445,5.47674016 19.5008918,5.31318624 19.712621,5.10222222 C19.9243502,4.8912582 20.0886204,4.64474215 20.2054365,4.36266667 C20.3222527,4.08059118 20.3806598,3.77363129 20.3806598,3.44177778 C20.3806598,3.11466503 20.3222527,2.81007548 20.2054365,2.528 C20.0886204,2.24592452 19.9243502,1.99940846 19.712621,1.78844444 C19.5008918,1.57748043 19.2514445,1.41392651 18.9642715,1.29777778 C18.6770985,1.18162905 18.3655936,1.12355556 18.0297472,1.12355556 C17.6890335,1.12355556 17.3750949,1.18162905 17.087922,1.29777778 C16.800749,1.41392651 16.5513017,1.57748043 16.3395725,1.78844444 C16.1278433,1.99940846 15.9635731,2.24592452 15.8467569,2.528 C15.7299408,2.81007548 15.6715336,3.11466503 15.6715336,3.44177778 C15.6715336,3.77363129 15.7299408,4.08059118 15.8467569,4.36266667 C15.9635731,4.64474215 16.1278433,4.8912582 16.3395725,5.10222222 C16.5513017,5.31318624 16.800749,5.47674016 17.087922,5.59288889 C17.3750949,5.70903762 17.6890335,5.76711111 18.0297472,5.76711111 Z M34.0287097,5.33260945 L36.3223294,0.810666667 C36.3807375,0.715851378 36.4659146,0.668444444 36.5778634,0.668444444 C36.6557408,0.668444444 36.7214489,0.694518258 36.7749896,0.746666667 C36.8285303,0.798815076 36.8553003,0.865184782 36.8553003,0.945777778 L36.8553003,5.94488889 C36.8553003,6.02074112 36.8285303,6.08592565 36.7749896,6.14044444 C36.7214489,6.19496324 36.6557408,6.22222222 36.5778634,6.22222222 C36.4951186,6.22222222 36.4257601,6.19496324 36.3697857,6.14044444 C36.3138113,6.08592565 36.2858245,6.02074112 36.2858245,5.94488889 L36.2858245,1.9182162 L34.2561546,5.95911111 C34.2026139,6.04918564 34.1198704,6.09422222 34.0079216,6.09422222 C33.8862382,6.09422222 33.7986274,6.0373339 33.7450867,5.92355556 L31.7227178,1.984 L31.7227178,5.94488889 C31.7227178,6.02074112 31.694731,6.08592565 31.6387566,6.14044444 C31.5827822,6.19496324 31.5158573,6.22222222 31.4379799,6.22222222 C31.3601025,6.22222222 31.2931776,6.19496324 31.2372032,6.14044444 C31.1812288,6.08592565 31.153242,6.02074112 31.153242,5.94488889 L31.153242,0.945777778 C31.153242,0.865184782 31.1812288,0.798815076 31.2372032,0.746666667 C31.2931776,0.694518258 31.3601025,0.668444444 31.4379799,0.668444444 C31.554796,0.668444444 31.6399731,0.715851378 31.6935139,0.810666667 L34.0287097,5.33260945 L34.0287097,5.33260945 Z M47.6351834,6.22222222 C47.5524387,6.22222222 47.484297,6.19614841 47.4307562,6.144 C47.3772155,6.09185159 47.3504456,6.02548188 47.3504456,5.94488889 L47.3504456,0.945777778 C47.3504456,0.865184782 47.3772155,0.798815076 47.4307562,0.746666667 C47.484297,0.694518258 47.5524387,0.668444444 47.6351834,0.668444444 L49.0953776,0.668444444 C49.4555606,0.668444444 49.7743665,0.745480711 50.0518048,0.899555556 C50.3292431,1.0536304 50.5458364,1.26577643 50.7015912,1.536 C50.857346,1.80622357 50.9352223,2.11910933 50.9352223,2.47466667 C50.9352223,2.82074247 50.857346,3.12770236 50.7015912,3.39555556 C50.5458364,3.66340875 50.3292431,3.8743696 50.0518048,4.02844444 C49.7743665,4.18251929 49.4555606,4.25955556 49.0953776,4.25955556 L47.9199213,4.25955556 L47.9199213,5.94488889 C47.9199213,6.02548188 47.8931513,6.09185159 47.8396106,6.144 C47.7860699,6.19614841 47.7179282,6.22222222 47.6351834,6.22222222 Z M47.9199213,3.72622222 L49.0953776,3.72622222 C49.3436118,3.72622222 49.5650724,3.67288942 49.7597659,3.56622222 C49.9544595,3.45955502 50.1065615,3.31140836 50.2160766,3.12177778 C50.3255917,2.9321472 50.3803485,2.71644565 50.3803485,2.47466667 C50.3803485,2.22340615 50.3255917,2.00296391 50.2160766,1.81333333 C50.1065615,1.62370276 49.9544595,1.47437092 49.7597659,1.36533333 C49.5650724,1.25629575 49.3436118,1.20177778 49.0953776,1.20177778 L47.9199213,1.20177778 L47.9199213,3.72622222 Z M62.4922488,1.57481481 L60.5834549,6.05155556 C60.5591182,6.10844473 60.5238306,6.15111097 60.4775908,6.17955556 C60.4313511,6.20800014 60.379028,6.22222222 60.32062,6.22222222 C60.2086712,6.22222222 60.1283613,6.17718564 60.0796879,6.08711111 C60.0310145,5.99703659 60.0261473,5.90933376 60.065086,5.824 L62.2115714,0.860444444 C62.2651121,0.732443804 62.3575902,0.668444444 62.4890083,0.668444444 C62.6155591,0.668444444 62.7056035,0.732443804 62.7591442,0.860444444 L64.9129306,5.83111111 C64.9567367,5.92118564 64.9506526,6.00888846 64.8946782,6.09422222 C64.8387038,6.17955598 64.7596108,6.22222222 64.6573967,6.22222222 C64.5989886,6.22222222 64.5466655,6.20800014 64.5004258,6.17955556 C64.4541861,6.15111097 64.4164648,6.10844473 64.3872607,6.05155556 L62.4922488,1.57481481 L62.4922488,1.57481481 Z M60.802484,4.89955556 L61.0215132,4.42311111 L63.9857073,4.42311111 L64.2047365,4.89955556 L60.802484,4.89955556 Z M75.0868332,6.22222222 C75.0040885,6.22222222 74.9359467,6.19614841 74.882406,6.144 C74.8288653,6.09185159 74.8020953,6.02548188 74.8020953,5.94488889 L74.8020953,0.945777778 C74.8020953,0.865184782 74.8288653,0.798815076 74.882406,0.746666667 C74.9359467,0.694518258 75.0040885,0.668444444 75.0868332,0.668444444 C75.1744453,0.668444444 75.2474543,0.701629298 75.3058623,0.768 L78.7957264,5.23377778 L78.7957264,0.945777778 C78.7957264,0.865184782 78.8224964,0.798815076 78.8760371,0.746666667 C78.9295778,0.694518258 78.9977195,0.668444444 79.0804643,0.668444444 C79.1583417,0.668444444 79.2252666,0.694518258 79.281241,0.746666667 C79.3372154,0.798815076 79.3652021,0.865184782 79.3652021,0.945777778 L79.3652021,5.94488889 C79.3652021,6.02548188 79.3372154,6.09185159 79.281241,6.144 C79.2252666,6.19614841 79.1583417,6.22222222 79.0804643,6.22222222 C79.0415256,6.22222222 79.0025875,6.21511118 78.9636487,6.20088889 C78.92471,6.1866666 78.8930728,6.16296313 78.8687361,6.12977778 L75.3715711,1.664 L75.3715711,5.94488889 C75.3715711,6.02548188 75.3435843,6.09185159 75.2876099,6.144 C75.2316355,6.19614841 75.1647106,6.22222222 75.0868332,6.22222222 Z M91.5031347,3.65640429 L93.3137066,0.817777778 C93.347778,0.765629369 93.3854993,0.727703822 93.4268717,0.704 C93.4682441,0.680296178 93.5181335,0.668444444 93.5765416,0.668444444 C93.6446843,0.668444444 93.7018747,0.690962738 93.7481144,0.736 C93.7943541,0.781037262 93.8211241,0.836740409 93.8284251,0.903111111 C93.8357261,0.969481813 93.8174739,1.03585152 93.7736678,1.10222222 L91.7805028,4.16711111 L91.7805028,5.94488889 C91.7805028,6.02074112 91.752516,6.08592565 91.6965416,6.14044444 C91.6405672,6.19496324 91.5736423,6.22222222 91.4957649,6.22222222 C91.4178875,6.22222222 91.3509626,6.19496324 91.2949882,6.14044444 C91.2390138,6.08592565 91.211027,6.02074112 91.211027,5.94488889 L91.211027,4.16711111 L89.225163,1.10222222 C89.1764896,1.03111076 89.1582373,0.962370702 89.1704057,0.896 C89.182574,0.829629298 89.2129944,0.775111324 89.2616678,0.732444444 C89.3103412,0.689777564 89.371182,0.668444444 89.4441921,0.668444444 C89.5026001,0.668444444 89.550056,0.680296178 89.586561,0.704 C89.6230661,0.727703822 89.6559201,0.760888676 89.6851241,0.803555556 L91.5031347,3.65640429 L91.5031347,3.65640429 Z" id="path-3"></path>
    </defs>
    <g id="Design" stroke="none" stroke-width="1" fill="none" fill-rule="evenodd">
        <g id="Contact-us_1" transform="translate(-42.000000, -41.000000)" fill-rule="nonzero">
            <g id="logo@1x" transform="translate(42.000000, 41.000000)">
                <g id="Group">
                    <path d="M38.4226478,9.86498296 L28.2663844,23.904658 L22.3093602,17.9217337 C21.9530181,17.5638423 21.5059715,17.3525721 21.0425403,17.2879232 C20.30637,17.1675941 19.5269715,17.4213202 19.0016863,18.0282191 L11.8275849,26.3169607 L9.50166791,23.980931 C8.63186377,23.1073452 7.22163268,23.1073452 6.35182859,23.980931 L6.07491964,24.2590439 C5.20511555,25.1326298 5.20511555,26.5489923 6.07491964,27.4225781 L10.0233446,31.3881702 C10.2955214,31.6615303 10.6206153,31.8493513 10.965509,31.9516333 C11.8721899,32.4864962 13.0576569,32.3146537 13.7725073,31.488737 L20.8371703,23.3264372 L26.7473206,29.2622839 C27.0282282,29.5444128 27.3655024,29.7354268 27.7227354,29.8353258 C28.5692129,30.3921751 29.7107711,30.1886028 30.3119871,29.3575023 L40.7050633,14.9904651 C41.2475139,16.85216 41.5384615,18.8217209 41.5384615,20.8595318 C41.5384615,32.3799331 32.2397602,41.7190636 20.7692308,41.7190636 C9.29870136,41.7190636 0,32.3799331 0,20.8595318 C0,9.3391305 9.29870136,0 20.7692308,0 C28.2222907,0 34.7584385,3.94283628 38.4226482,9.86498296 L38.4226478,9.86498296 Z" id="Combined-Shape" fill="url(#linearGradient-1)"></path>
                    <ellipse id="Oval" fill="#FC6453" cx="42.4038461" cy="9.21295985" rx="2.59615385" ry="2.60744147"></ellipse>
                </g>
                <g id="WeKan" transform="translate(50.000000, 4.000000)">
                    <g>
                        <use fill="#000000" xlink:href="#path-2"></use>
                        <use stroke="#FA4953" stroke-width="1.5" fill="#FA4953" xlink:href="#path-2"></use>
                    </g>
                </g>
                <g id="Company" transform="translate(56.000000, 35.000000)">
                    <g id="COMPANY">
                        <use fill="#000000" xlink:href="#path-3"></use>
                        <use fill="#121212" xlink:href="#path-3"></use>
                    </g>
                </g>
            </g>
        </g>
    </g>
</svg>